# Blender v2.79 (sub 0) OBJ File: ''
# www.blender.org
mtllib enemyChopper.mtl
o part6_part6.001
v -0.058842 -0.027569 0.455604
v 0.519871 -0.027569 0.192506
v 0.519490 0.366330 0.000000
v 0.519871 -0.027569 -0.177405
v -0.058842 -0.027569 -0.435928
v -0.055901 0.366124 -0.190051
v -0.055901 0.366124 0.211033
vt 0.316374 0.234756
vt 0.555004 0.234756
vt 0.554846 0.397179
vt 0.555004 0.234756
vt 0.316374 0.234756
vt 0.317587 0.397094
vt 0.317587 0.397094
vn 0.3781 0.4068 0.8316
vn 0.3772 0.3806 -0.8443
vn 0.2699 0.5086 -0.8176
vn 0.2976 0.5022 0.8119
usemtl Untitled.009
s off
f 1/1/1 2/2/1 3/3/1
f 3/3/2 4/4/2 5/5/2
f 3/3/3 5/5/3 6/6/3
f 1/1/4 3/3/4 7/7/4
o part5_part5.001
v -0.399610 0.229409 0.212310
v -0.399610 0.229409 -0.191966
v -0.806640 -0.027569 0.219971
v -0.055901 0.366124 -0.190051
v -0.055901 0.366124 0.211033
v -0.399610 -0.027569 0.460340
v -0.058842 -0.027569 0.455604
v -0.055901 0.366124 -0.190051
v -0.058842 -0.027569 -0.435928
v -0.399610 -0.027569 -0.441488
v -0.399610 0.229409 0.212310
v -0.055901 0.366124 0.211033
v -0.806640 -0.027569 0.219971
v -0.806640 -0.027569 -0.199968
v -0.399610 0.229409 -0.191966
v -0.806640 -0.027569 -0.199968
vt 0.201794 0.585210
vt 0.201794 0.748273
vt 0.037620 0.582120
vt 0.340428 0.747501
vt 0.317587 0.397094
vt 0.175860 0.234756
vt 0.316374 0.234756
vt 0.317587 0.397094
vt 0.316374 0.234756
vt 0.175860 0.234756
vt 0.175860 0.340720
vt 0.340428 0.585725
vt 0.008024 0.234756
vt 0.037620 0.751501
vt 0.175860 0.340720
vt 0.008024 0.234756
vn -0.5339 0.8456 0.0000
vn -0.3696 0.9292 0.0000
vn 0.0118 0.5276 0.8494
vn 0.0138 0.5296 -0.8481
vn -0.2639 0.6699 0.6940
vn -0.3911 0.6392 0.6622
vn -0.2634 0.6720 -0.6921
vn -0.3917 0.6410 -0.6601
usemtl Untitled.009
s off
f 8/8/5 9/9/5 10/10/5
f 8/8/6 11/11/6 9/9/6
f 12/12/7 13/13/7 14/14/7
f 15/15/8 16/16/8 17/17/8
f 18/18/9 13/13/9 12/12/9
f 8/8/6 19/19/6 11/11/6
f 18/18/10 20/20/10 13/13/10
f 9/9/5 21/21/5 10/10/5
f 17/17/11 22/22/11 15/15/11
f 17/17/12 23/23/12 22/22/12
o part4_part4.001
v -0.399610 -0.569788 0.228441
v -0.058842 -0.027569 0.455604
v -0.399610 -0.027569 0.460340
v -0.399610 -0.569788 -0.216563
v -0.058842 -0.519601 0.228441
v -0.399610 -0.569788 0.228441
v -0.806640 -0.027569 -0.199968
v -0.606491 -0.519975 -0.218438
v -0.606491 -0.519975 0.228441
v -0.806640 -0.027569 0.219971
v -0.606491 -0.519975 -0.218438
v -0.606491 -0.519975 0.228441
v -0.399610 -0.569788 -0.216563
v -0.606491 -0.519975 -0.218438
v -0.399610 -0.027569 -0.441488
v -0.058842 -0.027569 -0.435928
v -0.058842 -0.519601 -0.214687
v -0.806640 -0.027569 0.219971
v -0.606491 -0.519975 0.228441
v -0.058842 -0.519601 0.228441
v -0.058842 -0.519601 -0.214687
v -0.806640 -0.027569 -0.199968
vt 0.175860 0.011175
vt 0.316374 0.234756
vt 0.175860 0.234756
vt 1.497643 2.144559
vt 1.476122 2.218134
vt 0.841278 1.851327
vt 0.690033 0.969280
vt 0.701661 0.659280
vt 0.420323 0.659280
vt 0.425656 0.969280
vt 0.804509 1.793239
vt 0.090554 0.031715
vt 0.175860 0.011175
vt 0.090554 0.031715
vt 0.175860 0.234756
vt 0.316374 0.234756
vt 0.316374 0.031870
vt 0.008024 0.234756
vt 1.519165 2.218134
vt 0.316374 0.031870
vt 1.476122 2.144869
vt 0.008024 0.234756
vn 0.0128 -0.3932 0.9194
vn 0.1457 -0.9893 0.0000
vn -0.9264 -0.3766 0.0000
vn -0.2341 -0.9722 0.0000
vn -0.0943 -0.3915 0.9153
vn -0.0836 -0.3818 -0.9204
vn 0.0151 -0.3831 -0.9236
vn 0.0653 -0.4092 -0.9101
vn -0.4994 -0.1884 0.8456
vn 0.0616 -0.4184 0.9062
vn -0.5026 -0.1725 -0.8471
usemtl Untitled.009
s off
f 24/24/13 25/25/13 26/26/13
f 27/27/14 28/28/14 29/29/14
f 30/30/15 31/31/15 32/32/15
f 32/32/15 33/33/15 30/30/15
f 27/27/16 29/29/16 34/34/16
f 24/24/17 26/26/17 35/35/17
f 36/36/18 37/37/18 38/38/18
f 36/36/19 38/38/19 39/39/19
f 40/40/20 36/36/20 39/39/20
f 35/35/21 26/26/21 41/41/21
f 29/29/16 42/42/16 34/34/16
f 24/24/22 43/43/22 25/25/22
f 27/27/14 44/44/14 28/28/14
f 38/38/23 37/37/23 45/45/23
o part3_part3.001
v 0.519871 -0.027569 -0.177405
v -0.058842 -0.519601 -0.214687
v -0.058842 -0.027569 -0.435928
v 0.519940 -0.373279 0.103279
v 0.519940 -0.373279 -0.094844
v 0.728912 -0.027569 -0.122698
v 0.519940 -0.373279 0.103279
v 0.519871 -0.027569 0.192506
v -0.058842 -0.519601 0.228441
v 0.728912 -0.027569 0.141434
v 0.519490 0.366330 0.000000
v 0.519871 -0.027569 0.192506
v 0.788847 0.176799 0.000000
v 0.728912 -0.027569 0.141434
v 1.500324 0.086971 -0.021818
v 1.500324 0.086971 0.041449
v 1.460388 -0.027569 -0.040252
v 0.519871 -0.027569 -0.177405
v 1.460388 -0.027569 0.059556
v -0.058842 -0.519601 -0.214687
v -0.058842 -0.519601 0.228441
v 0.728912 -0.027569 -0.122698
v 0.519940 -0.373279 -0.094844
v 0.728912 -0.027569 0.141434
v -0.058842 -0.027569 0.455604
v 0.728912 -0.027569 -0.122698
v 1.309586 0.086971 -0.000000
v 1.460388 -0.027569 -0.040252
v 1.460388 -0.027569 0.059556
v 1.500324 0.086971 0.041449
v 0.728912 -0.027569 -0.122698
v 0.728912 -0.027569 0.141434
v 1.500324 0.086971 -0.021818
v 1.570011 0.282292 0.009838
v 1.459273 0.282292 0.009838
v 1.570011 0.282292 0.009838
vt 0.555004 0.234756
vt 0.316374 0.031870
vt 0.316374 0.234756
vt 1.192139 1.843720
vt 1.192139 1.843720
vt 1.264051 1.995169
vt 0.555032 0.092205
vt 0.555004 0.234756
vt 0.316374 0.031870
vt 1.264051 1.995169
vt 0.554846 0.397179
vt 0.555004 0.234756
vt 0.665915 0.319027
vt 0.641201 0.234756
vt 1.170830 2.176757
vt 1.170830 2.187217
vt 1.515769 2.022699
vt 0.555004 0.234756
vt 1.515769 2.022699
vt 1.476122 2.144869
vt 1.476122 2.218134
vt 0.641201 0.234756
vt 0.555032 0.092205
vt 0.641201 0.234756
vt 0.316374 0.234756
vt 0.641201 0.234756
vt 0.880638 0.281986
vt 0.942821 0.234756
vt 0.942821 0.234756
vt 0.959288 0.281986
vt 1.264051 1.995169
vt 1.264051 1.995169
vt 0.959288 0.281986
vt 0.988024 0.362526
vt 0.942361 0.362526
vt 1.159308 2.184016
vn 0.3773 -0.3798 -0.8446
vn 0.8558 -0.5173 -0.0000
vn 0.2630 -0.2411 0.9342
vn 0.2953 0.4197 0.8583
vn 0.2033 0.5162 0.8320
vn 0.9443 -0.3292 0.0000
vn 0.2777 0.3947 -0.8758
vn 0.2451 -0.9695 0.0000
vn 0.2467 -0.2251 -0.9426
vn 0.2302 -0.2432 0.9423
vn 0.3815 -0.3875 0.8392
vn 0.0853 0.4944 -0.8651
vn 0.1003 0.4448 -0.8900
vn -0.2070 0.2228 0.9526
vn 0.0945 0.5476 0.8314
vn 0.0000 -1.0000 0.0000
vn 0.0927 0.5527 0.8282
vn -0.1114 0.1957 -0.9743
vn -0.1114 0.1976 -0.9739
vn -0.0000 0.0503 -0.9987
vn -0.2068 0.2278 0.9515
vn 0.9418 -0.3360 0.0000
vn 0.2259 0.4519 -0.8630
vn 0.2517 -0.2248 -0.9413
usemtl Untitled.009
s off
f 46/46/24 47/47/24 48/48/24
f 49/49/25 50/50/25 51/51/25
f 52/52/26 53/53/26 54/54/26
f 55/55/25 49/49/25 51/51/25
f 56/56/27 57/57/27 58/58/27
f 59/59/28 58/58/28 57/57/28
f 60/60/29 61/61/29 62/62/29
f 58/58/30 63/63/30 56/56/30
f 62/62/29 61/61/29 64/64/29
f 65/65/31 50/50/31 49/49/31
f 49/49/31 66/66/31 65/65/31
f 46/46/32 67/67/32 68/68/32
f 53/53/33 52/52/33 69/69/33
f 54/54/34 53/53/34 70/70/34
f 71/71/35 58/58/35 72/72/35
f 72/72/36 73/73/36 71/71/36
f 72/72/37 74/74/37 75/75/37
f 59/59/38 72/72/38 58/58/38
f 76/76/39 62/62/39 64/64/39
f 64/64/39 77/77/39 76/76/39
f 74/74/40 72/72/40 59/59/40
f 72/72/41 78/78/41 73/73/41
f 78/78/42 72/72/42 79/79/42
f 80/80/43 79/79/43 72/72/43
f 79/79/44 72/72/44 75/75/44
f 81/81/45 61/61/45 60/60/45
f 63/63/46 58/58/46 71/71/46
f 46/46/47 68/68/47 47/47/47
o part1_part1.001
v 0.233365 0.603283 -0.000000
v -0.055901 0.366124 0.211033
v 0.519490 0.366330 0.000000
v -0.055901 0.366124 -0.190051
v -0.055901 0.366124 0.211033
v -0.052760 0.603283 0.000000
v -0.052760 0.603283 0.000000
v -0.055901 0.366124 -0.190051
vt 0.436864 0.494885
vt 0.317587 0.397094
vt 0.554846 0.397179
vt 0.276569 0.433884
vt 0.087469 0.433884
vt 0.186965 0.545698
vt 0.318882 0.494885
vt 0.317587 0.397094
vn 0.3178 0.3838 0.8670
vn -0.9999 0.0132 0.0000
vn 0.0000 0.6253 -0.7803
vn 0.0000 0.6648 0.7471
vn 0.2932 0.3540 -0.8881
usemtl Untitled.009
s off
f 82/82/48 83/83/48 84/84/48
f 85/85/49 86/86/49 87/87/49
f 88/88/50 82/82/50 89/89/50
f 82/82/51 88/88/51 83/83/51
f 82/82/52 84/84/52 89/89/52
