# Blender v2.79 (sub 0) OBJ File: ''
# www.blender.org
mtllib Leopard 2A4.mtl
o cube1
v -0.809530 0.731748 0.612903
v -0.809530 1.039605 0.612903
v 0.808894 1.039605 0.612903
v 0.808894 0.731748 0.612903
v -0.809530 0.731748 -1.147591
v -0.769070 1.767421 -1.147591
v 0.768433 1.767421 -1.147591
v 0.808894 0.731748 -1.147591
v -0.196862 1.039605 0.874671
v -0.198263 0.731748 0.874671
v 0.142422 1.039605 0.874671
v 0.141532 0.731748 0.874671
v 0.141532 0.768999 0.997663
v 0.142422 1.002354 0.997663
v -0.196862 1.002354 0.997663
v -0.198263 0.768999 0.997663
v -0.587806 0.731748 -1.403549
v -0.587806 1.039605 -1.403549
v 0.587170 1.039605 -1.403549
v 0.587170 0.731748 -1.403549
v -0.587806 0.731748 -1.559783
v -0.587806 0.976791 -1.559783
v 0.587170 0.976791 -1.559783
v 0.587170 0.731748 -1.559783
v -0.795506 1.039605 -1.108550
v -0.756122 1.039605 -1.147591
v -0.768124 1.039605 -1.176685
v 0.755486 1.039605 -1.147591
v 0.794870 1.039605 -1.108550
v 0.767487 1.039605 -1.176685
v -0.083264 1.118498 0.044013
v -0.274964 1.118498 0.308316
v -0.585141 1.118498 0.207361
v -0.585141 1.118498 -0.119336
v -0.274964 1.118498 -0.220290
v -0.083264 0.925957 0.044013
v -0.274964 0.925957 0.308316
v -0.585141 0.925957 0.207361
v -0.585141 0.925957 -0.119336
v -0.274964 0.925957 -0.220290
v 0.305050 0.960276 0.174307
v 0.337568 1.182622 0.141733
v 0.532677 1.182622 0.141733
v 0.565195 0.960276 0.174307
v 0.305050 0.960276 -0.086282
v 0.337568 1.182622 -0.053708
v 0.532677 1.182622 -0.053708
v 0.565195 0.960276 -0.086282
v -0.809530 0.731748 0.612903
v -0.809530 0.731748 0.612903
v -0.809530 1.039605 0.612903
v -0.809530 1.039605 0.612903
v 0.808894 1.039605 0.612903
v 0.808894 1.039605 0.612903
v 0.808894 0.731748 0.612903
v 0.808894 0.731748 0.612903
v -0.809530 0.731748 -1.147591
v -0.769070 1.767421 -1.147591
v -0.769070 1.767421 -1.147591
v 0.768433 1.767421 -1.147591
v 0.768433 1.767421 -1.147591
v 0.808894 0.731748 -1.147591
v -0.196862 1.039605 0.874671
v -0.196862 1.039605 0.874671
v -0.198263 0.731748 0.874671
v -0.198263 0.731748 0.874671
v 0.142422 1.039605 0.874671
v 0.142422 1.039605 0.874671
v 0.141532 0.731748 0.874671
v 0.141532 0.731748 0.874671
v 0.141532 0.768999 0.997663
v 0.141532 0.768999 0.997663
v 0.142422 1.002354 0.997663
v 0.142422 1.002354 0.997663
v -0.196862 1.002354 0.997663
v -0.196862 1.002354 0.997663
v -0.198263 0.768999 0.997663
v -0.198263 0.768999 0.997663
v -0.587806 0.731748 -1.403549
v -0.587806 1.039605 -1.403549
v 0.587170 1.039605 -1.403549
v 0.587170 0.731748 -1.403549
v -0.587806 0.731748 -1.559783
v -0.587806 0.731748 -1.559783
v -0.587806 0.976791 -1.559783
v -0.587806 0.976791 -1.559783
v 0.587170 0.976791 -1.559783
v 0.587170 0.976791 -1.559783
v 0.587170 0.731748 -1.559783
v 0.587170 0.731748 -1.559783
v -0.795506 1.039605 -1.108550
v -0.795506 1.039605 -1.108550
v -0.756122 1.039605 -1.147591
v -0.756122 1.039605 -1.147591
v -0.768124 1.039605 -1.176685
v -0.768124 1.039605 -1.176685
v 0.755486 1.039605 -1.147591
v 0.755486 1.039605 -1.147591
v 0.794870 1.039605 -1.108550
v 0.794870 1.039605 -1.108550
v 0.767487 1.039605 -1.176685
v 0.767487 1.039605 -1.176685
v -0.083264 1.118498 0.044013
v -0.274964 1.118498 0.308316
v -0.274964 1.118498 0.308316
v -0.585141 1.118498 0.207361
v -0.585141 1.118498 0.207361
v -0.585141 1.118498 -0.119336
v -0.585141 1.118498 -0.119336
v -0.274964 1.118498 -0.220290
v -0.274964 1.118498 -0.220290
v -0.083264 0.925957 0.044013
v -0.274964 0.925957 0.308316
v -0.274964 0.925957 0.308316
v -0.585141 0.925957 0.207361
v -0.585141 0.925957 0.207361
v -0.585141 0.925957 -0.119336
v -0.585141 0.925957 -0.119336
v -0.274964 0.925957 -0.220290
v -0.274964 0.925957 -0.220290
v 0.305050 0.960276 0.174307
v 0.305050 0.960276 0.174307
v 0.337568 1.182622 0.141733
v 0.337568 1.182622 0.141733
v 0.532677 1.182622 0.141733
v 0.532677 1.182622 0.141733
v 0.565195 0.960276 0.174307
v 0.565195 0.960276 0.174307
v 0.305050 0.960276 -0.086282
v 0.337568 1.182622 -0.053708
v 0.337568 1.182622 -0.053708
v 0.532677 1.182622 -0.053708
v 0.532677 1.182622 -0.053708
v 0.565195 0.960276 -0.086282
vt 0.356757 0.377964
vt 0.356749 0.341491
vt 0.432529 0.341476
vt 0.432695 0.377949
vt 0.663583 0.560626
vt 0.663584 0.343357
vt 0.742649 0.321041
vt 0.855324 0.560626
vt 0.782906 0.321041
vt 0.855325 0.343358
vt 0.384263 0.172591
vt 0.379853 0.086295
vt 0.386422 0.086377
vt 0.432074 0.410430
vt 0.292870 0.410430
vt 0.292870 0.381399
vt 0.432074 0.381399
vt 0.452801 0.591193
vt 0.412604 0.591193
vt 0.452695 0.563547
vt 0.412439 0.563547
vt 0.516751 0.527493
vt 0.434698 0.527503
vt 0.516746 0.491021
vt 0.434593 0.491030
vt 0.419249 0.204651
vt 0.419249 0.177004
vt 0.433821 0.172591
vt 0.433821 0.209064
vt 0.736502 0.000000
vt 0.776697 0.000321
vt 0.776576 0.015546
vt 0.736381 0.015225
vt 0.409322 0.258831
vt 0.423893 0.263245
vt 0.423893 0.290892
vt 0.409322 0.295305
vt 0.742649 0.305816
vt 0.782906 0.305816
vt 0.379853 0.172591
vt 0.383581 0.172616
vt 0.379853 0.258831
vt 0.829056 0.590950
vt 0.689852 0.590950
vt 0.018488 0.879029
vt 0.020160 0.915459
vt 0.001331 0.908874
vt 0.000000 0.879878
vt 0.827110 0.285867
vt 0.826951 0.305816
vt 0.687751 0.304704
vt 0.687910 0.284755
vt 0.533013 0.877636
vt 0.551519 0.877842
vt 0.551196 0.906868
vt 0.532607 0.914102
vt 0.829055 0.609460
vt 0.689852 0.609460
vt 0.054453 0.913884
vt 0.063149 0.913666
vt 0.059857 1.000000
vt 0.383581 0.172616
vt 0.387310 0.172591
vt 0.387310 0.258831
vt 0.379853 0.000082
vt 0.386422 0.000000
vt 0.382013 0.086295
vt 0.275799 0.877362
vt 0.275771 0.913830
vt 0.058559 0.877155
vt 0.498280 0.913719
vt 0.492901 0.877155
vt 0.855354 0.038492
vt 0.851995 0.251115
vt 0.663583 0.249610
vt 0.847292 0.255703
vt 0.668212 0.254273
vt 0.663620 0.036961
vt 0.666763 0.257708
vt 0.848687 0.259161
vt 0.495870 0.999970
vt 0.489582 0.913803
vt 0.275799 0.884868
vt 0.277094 0.921313
vt 0.576210 0.522334
vt 0.553498 0.553647
vt 0.516751 0.541686
vt 0.516751 0.502981
vt 0.553498 0.491021
vt 0.598921 0.491021
vt 0.635669 0.502981
vt 0.576210 0.522334
vt 0.635669 0.541686
vt 0.598921 0.553647
vt 0.395431 0.341476
vt 0.395431 0.318665
vt 0.434113 0.341476
vt 0.434113 0.318665
vt 0.491446 0.586358
vt 0.491446 0.563547
vt 0.530091 0.586358
vt 0.530091 0.563547
vt 0.386422 0.084510
vt 0.386422 0.061699
vt 0.425127 0.084510
vt 0.425127 0.061699
vt 0.452801 0.586358
vt 0.452801 0.563547
vt 0.491446 0.586358
vt 0.491446 0.563547
vt 0.356749 0.341476
vt 0.356749 0.318665
vt 0.653478 0.594420
vt 0.649625 0.621043
vt 0.626510 0.621043
vt 0.622657 0.594420
vt 0.530091 0.563547
vt 0.560964 0.563547
vt 0.557105 0.590169
vt 0.533950 0.590169
vt 0.622657 0.563547
vt 0.622657 0.594420
vt 0.591837 0.563547
vt 0.591837 0.594420
vt 0.645772 0.563547
vt 0.645772 0.586701
vt 0.622657 0.563547
vt 0.622657 0.586701
vt 0.618805 0.621043
vt 0.595690 0.621043
vt 0.587978 0.590169
vt 0.564823 0.590169
vt 0.591837 0.563547
vt 0.560964 0.563547
vn -0.3937 0.0000 0.9193
vn -0.3929 0.0018 0.9196
vn 0.0000 -1.0000 0.0000
vn 0.7040 0.0125 0.7101
vn 0.0000 0.0000 -1.0000
vn 0.0000 0.0000 1.0000
vn 0.3656 0.0000 0.9308
vn 0.3652 -0.0011 0.9309
vn 1.0000 -0.0038 0.0012
vn 1.0000 -0.0029 -0.0009
vn 0.0000 0.9571 0.2899
vn -1.0000 0.0060 -0.0018
vn -1.0000 0.0046 0.0014
vn 0.0000 -0.9571 0.2899
vn 0.9243 0.0164 -0.3813
vn -1.0000 0.0000 0.0000
vn 0.0000 0.9278 -0.3730
vn 1.0000 0.0000 0.0000
vn -0.9278 0.0137 -0.3729
vn -0.9243 0.0164 -0.3813
vn -0.7040 0.0125 0.7101
vn -1.0000 0.0000 -0.0081
vn -0.9990 0.0455 0.0000
vn 0.7828 0.0000 -0.6222
vn 0.7552 0.0398 -0.6542
vn 0.0000 1.0000 0.0000
vn 0.9278 0.0137 -0.3729
vn 0.9990 0.0455 0.0000
vn 1.0000 0.0000 -0.0081
vn 0.9242 0.0892 -0.3714
vn -0.7552 0.0398 -0.6542
vn -0.7828 0.0000 -0.6222
vn -0.9242 0.0892 -0.3714
vn 0.8095 0.0000 -0.5871
vn -0.3095 0.0000 -0.9509
vn -0.3095 0.0000 0.9509
vn 0.8095 0.0000 0.5871
vn 0.0000 0.1450 0.9894
vn 0.9895 0.1447 0.0000
vn 0.0000 0.1450 -0.9894
vn -0.9895 0.1447 0.0000
usemtl cube1_auv
s off
f 51/1/1 49/2/1 65/3/1
f 51/1/2 65/3/2 63/4/2
f 62/5/3 56/6/3 70/7/3
f 70/7/3 57/8/3 62/5/3
f 70/7/3 66/9/3 57/8/3
f 66/9/3 50/10/3 57/8/3
f 59/11/4 91/12/4 93/13/4
f 85/14/5 23/15/5 24/16/5
f 24/16/5 83/17/5 85/14/5
f 73/18/6 15/19/6 71/20/6
f 15/19/6 16/21/6 71/20/6
f 53/22/7 67/23/7 55/24/7
f 67/23/8 69/25/8 55/24/8
f 14/26/9 13/27/9 12/28/9
f 12/28/10 11/29/10 14/26/10
f 76/30/11 74/31/11 68/32/11
f 68/32/11 64/33/11 76/30/11
f 10/34/12 77/35/12 75/36/12
f 75/36/13 9/37/13 10/34/13
f 70/7/14 72/38/14 78/39/14
f 78/39/14 66/9/14 70/7/14
f 26/40/15 95/41/15 58/42/15
f 57/8/3 79/43/3 62/5/3
f 79/43/3 82/44/3 62/5/3
f 17/45/16 18/46/16 22/47/16
f 17/45/16 22/47/16 21/48/16
f 81/49/17 88/50/17 86/51/17
f 86/51/17 80/52/17 81/49/17
f 20/53/18 89/54/18 87/55/18
f 20/53/18 87/55/18 19/56/18
f 79/43/3 84/57/3 82/44/3
f 84/57/3 90/58/3 82/44/3
f 27/59/19 25/60/19 6/61/19
f 30/62/20 97/63/20 60/64/20
f 28/65/21 29/66/21 7/67/21
f 1/68/22 2/69/22 25/60/22
f 1/68/23 25/60/23 5/70/23
f 19/56/24 101/71/24 20/53/24
f 101/71/25 8/72/25 20/53/25
f 68/32/26 54/73/26 100/74/26
f 68/32/26 100/74/26 92/75/26
f 100/74/26 98/76/26 92/75/26
f 98/76/26 94/77/26 92/75/26
f 92/75/26 64/33/26 68/32/26
f 92/75/26 52/78/26 64/33/26
f 94/77/26 80/52/26 96/79/26
f 94/77/26 81/49/26 80/52/26
f 81/49/26 94/77/26 98/76/26
f 81/49/26 98/76/26 102/80/26
f 61/81/27 99/82/27 101/71/27
f 4/83/28 8/72/28 99/82/28
f 4/83/29 99/82/29 3/84/29
f 101/71/30 99/82/30 8/72/30
f 17/45/31 5/70/31 27/59/31
f 17/45/32 27/59/32 18/46/32
f 5/70/33 25/60/33 27/59/33
f 103/85/26 111/86/26 108/87/26
f 103/85/26 108/87/26 107/88/26
f 103/85/26 107/88/26 105/89/26
f 114/90/3 116/91/3 112/92/3
f 116/91/3 118/93/3 112/92/3
f 118/93/3 120/94/3 112/92/3
f 31/95/34 36/96/34 35/97/34
f 36/96/34 40/98/34 35/97/34
f 110/99/35 119/100/35 109/101/35
f 119/100/35 117/102/35 109/101/35
f 34/103/16 39/104/16 33/105/16
f 39/104/16 38/106/16 33/105/16
f 106/107/36 115/108/36 104/109/36
f 115/108/36 113/110/36 104/109/36
f 32/111/37 37/112/37 31/95/37
f 37/112/37 36/96/37 31/95/37
f 128/113/38 126/114/38 124/115/38
f 124/115/38 122/116/38 128/113/38
f 44/117/39 48/118/39 47/119/39
f 44/117/39 47/119/39 43/120/39
f 121/121/3 129/122/3 127/123/3
f 129/122/3 134/124/3 127/123/3
f 125/125/26 133/126/26 123/127/26
f 133/126/26 131/128/26 123/127/26
f 130/129/40 132/130/40 134/124/40
f 134/124/40 129/122/40 130/129/40
f 42/131/41 46/132/41 41/133/41
f 46/132/41 45/134/41 41/133/41
o cube1_sep4
v -0.078790 0.897579 1.241273
v -0.000220 0.976589 1.241273
v 0.078790 0.898019 1.241273
v 0.000220 0.819009 1.241273
v -0.106762 0.897501 0.632640
v -0.000298 1.004560 0.632640
v 0.106762 0.898097 0.632640
v 0.000298 0.791037 0.632640
v -0.068947 0.897606 3.594707
v -0.000193 0.966745 3.594707
v 0.068947 0.897991 3.594707
v 0.000193 0.828852 3.594707
v -0.068947 0.897606 0.904958
v -0.000193 0.966745 0.904958
v 0.068947 0.897991 0.904958
v 0.000193 0.828852 0.904958
v -0.101661 0.897515 2.414470
v -0.000284 0.999460 2.414470
v 0.101661 0.898083 2.414470
v 0.000284 0.796138 2.414470
v -0.101661 0.897515 1.893691
v -0.000284 0.999460 1.893691
v 0.101661 0.898083 1.893691
v 0.000284 0.796138 1.893691
v -0.078790 0.897579 1.241273
v -0.078790 0.897579 1.241273
v -0.000220 0.976589 1.241273
v -0.000220 0.976589 1.241273
v 0.078790 0.898019 1.241273
v 0.078790 0.898019 1.241273
v 0.000220 0.819009 1.241273
v 0.000220 0.819009 1.241273
v -0.106762 0.897501 0.632640
v -0.106762 0.897501 0.632640
v -0.000298 1.004560 0.632640
v -0.000298 1.004560 0.632640
v 0.106762 0.898097 0.632640
v 0.106762 0.898097 0.632640
v 0.000298 0.791037 0.632640
v 0.000298 0.791037 0.632640
v -0.068947 0.897606 3.594707
v -0.068947 0.897606 3.594707
v -0.000193 0.966745 3.594707
v -0.000193 0.966745 3.594707
v 0.068947 0.897991 3.594707
v 0.068947 0.897991 3.594707
v 0.000193 0.828852 3.594707
v 0.000193 0.828852 3.594707
v -0.068947 0.897606 0.904958
v -0.068947 0.897606 0.904958
v -0.000193 0.966745 0.904958
v -0.000193 0.966745 0.904958
v 0.068947 0.897991 0.904958
v 0.068947 0.897991 0.904958
v 0.000193 0.828852 0.904958
v 0.000193 0.828852 0.904958
v -0.101661 0.897515 2.414470
v -0.101661 0.897515 2.414470
v -0.000284 0.999460 2.414470
v -0.000284 0.999460 2.414470
v 0.101661 0.898083 2.414470
v 0.101661 0.898083 2.414470
v 0.000284 0.796138 2.414470
v 0.000284 0.796138 2.414470
v -0.101661 0.897515 1.893691
v -0.101661 0.897515 1.893691
v -0.000284 0.999460 1.893691
v -0.000284 0.999460 1.893691
v 0.101661 0.898083 1.893691
v 0.101661 0.898083 1.893691
v 0.000284 0.796138 1.893691
v 0.000284 0.796138 1.893691
vt 0.560964 0.600559
vt 0.571412 0.590169
vt 0.581802 0.600617
vt 0.571354 0.611007
vt 0.276627 0.421582
vt 0.324263 0.421582
vt 0.276627 0.436316
vt 0.324263 0.436316
vt 0.409322 0.258831
vt 0.409322 0.306467
vt 0.394587 0.258831
vt 0.394587 0.306467
vt 0.394587 0.258831
vt 0.394587 0.306467
vt 0.379853 0.258831
vt 0.379853 0.306467
vt 0.571412 0.631844
vt 0.560964 0.621455
vt 0.571354 0.611007
vt 0.581802 0.621396
vt 0.276627 0.436316
vt 0.228991 0.436316
vt 0.228991 0.421582
vt 0.276627 0.421582
vt 0.496291 0.535648
vt 0.504482 0.527503
vt 0.512628 0.535694
vt 0.504437 0.543839
vt 0.000000 0.854052
vt 0.318665 0.854052
vt 0.000000 0.865604
vt 0.318665 0.865604
vt 0.368301 0.000000
vt 0.368301 0.318665
vt 0.356749 0.000000
vt 0.356749 0.318665
vt 0.379853 0.000000
vt 0.379853 0.318665
vt 0.368301 0.000000
vt 0.368301 0.318665
vt 0.504482 0.560176
vt 0.496291 0.552031
vt 0.504437 0.543839
vt 0.512628 0.551985
vt 0.318665 0.877155
vt 0.000000 0.877155
vt 0.000000 0.865604
vt 0.318665 0.865604
vt 0.635669 0.503031
vt 0.647747 0.491021
vt 0.659757 0.503098
vt 0.647679 0.515109
vt 0.434593 0.544536
vt 0.496291 0.544536
vt 0.434593 0.561569
vt 0.496291 0.561569
vt 0.420488 0.000000
vt 0.420488 0.061699
vt 0.403455 0.000000
vt 0.403455 0.061699
vt 0.403455 0.000000
vt 0.403455 0.061699
vt 0.386422 0.000000
vt 0.386422 0.061699
vt 0.647747 0.539197
vt 0.635669 0.527187
vt 0.659757 0.527119
vt 0.647679 0.515109
vt 0.496291 0.544536
vt 0.434593 0.544536
vt 0.496291 0.527503
vt 0.434593 0.527503
vn 0.0000 0.0000 1.0000
vn 0.7087 -0.7048 0.0325
vn -0.7048 -0.7087 0.0325
vn 0.7048 0.7087 0.0325
vn -0.0000 0.0000 -1.0000
vn -0.7087 0.7048 0.0325
vn 0.7091 -0.7051 0.0000
vn -0.7051 -0.7091 0.0000
vn 0.7051 0.7091 0.0000
vn -0.7091 0.7051 0.0000
usemtl cube1_auv
s off
f 160/135/42 166/136/42 164/137/42
f 160/135/42 164/137/42 162/138/42
f 138/139/43 142/140/43 137/141/43
f 142/140/43 141/142/43 137/141/43
f 159/143/44 167/144/44 165/145/44
f 167/144/44 173/146/44 165/145/44
f 163/147/45 171/148/45 161/149/45
f 171/148/45 169/150/45 161/149/45
f 170/151/46 172/152/46 174/153/46
f 174/153/46 168/154/46 170/151/46
f 136/155/47 140/156/47 139/157/47
f 135/158/47 136/155/47 139/157/47
f 176/159/42 182/160/42 180/161/42
f 176/159/42 180/161/42 178/162/42
f 146/163/48 150/164/48 145/165/48
f 150/164/48 149/166/48 145/165/48
f 175/167/49 183/168/49 181/169/49
f 183/168/49 189/170/49 181/169/49
f 179/171/50 187/172/50 177/173/50
f 187/172/50 185/174/50 177/173/50
f 186/175/46 188/176/46 190/177/46
f 190/177/46 184/178/46 186/175/46
f 144/179/51 148/180/51 147/181/51
f 144/179/51 147/181/51 143/182/51
f 192/183/42 198/184/42 196/185/42
f 192/183/42 196/185/42 194/186/42
f 197/187/48 205/188/48 195/189/48
f 205/188/48 203/190/48 195/189/48
f 151/191/49 155/192/49 154/193/49
f 155/192/49 158/194/49 154/193/49
f 153/195/50 157/196/50 152/197/50
f 157/196/50 156/198/50 152/197/50
f 202/199/46 204/200/46 200/201/46
f 204/200/46 206/202/46 200/201/46
f 193/203/51 201/204/51 191/205/51
f 201/204/51 199/206/51 191/205/51
o cube1_sep7
v 0.658679 0.008036 0.970115
v 0.658679 0.401476 1.616253
v 0.928271 0.401476 1.616253
v 0.928271 0.008036 0.970115
v 0.658679 0.008036 -1.492660
v 0.928271 0.008036 -1.492660
v 0.658679 0.621052 1.342467
v 0.928271 0.621052 1.342467
v 0.928271 0.621052 -1.865013
v 0.658679 0.621052 -1.865013
v 0.658679 0.008036 0.970115
v 0.658679 0.401476 1.616253
v 0.658679 0.401476 1.616253
v 0.928271 0.401476 1.616253
v 0.928271 0.401476 1.616253
v 0.928271 0.008036 0.970115
v 0.658679 0.008036 -1.492660
v 0.658679 0.008036 -1.492660
v 0.928271 0.008036 -1.492660
v 0.928271 0.008036 -1.492660
v 0.658679 0.621052 1.342467
v 0.928271 0.621052 1.342467
v 0.928271 0.621052 -1.865013
v 0.928271 0.621052 -1.865013
v 0.658679 0.621052 -1.865013
v 0.658679 0.621052 -1.865013
vt 0.292870 0.089625
vt 0.292870 0.000000
vt 0.324810 0.000000
vt 0.324810 0.089625
vt 0.324810 0.381399
vt 0.292870 0.381399
vt 0.292870 0.041579
vt 0.292870 0.421582
vt 0.260930 0.421582
vt 0.260930 0.041579
vt 0.412439 0.682785
vt 0.380002 0.708799
vt 0.335888 0.636173
vt 0.000000 0.708799
vt 0.044114 0.636173
vt 0.292870 0.000000
vt 0.260930 0.000000
vt 0.419249 0.172591
vt 0.419249 0.257565
vt 0.387310 0.257565
vt 0.387310 0.172591
vt 0.336781 0.635953
vt 0.045007 0.635953
vt 0.000893 0.708579
vt 0.380895 0.708579
vt 0.413332 0.682565
vn 0.0000 -0.8541 0.5201
vn 0.0000 -1.0000 0.0000
vn 0.0000 1.0000 0.0000
vn -1.0000 0.0000 0.0000
vn 0.0000 0.7801 0.6256
vn 0.0000 -0.5191 -0.8547
vn 1.0000 -0.0000 0.0000
usemtl cube1_auv
s off
f 210/207/52 220/208/52 218/209/52
f 218/209/52 207/210/52 210/207/52
f 207/210/53 223/211/53 225/212/53
f 207/210/53 225/212/53 210/207/53
f 214/213/54 229/214/54 231/215/54
f 231/215/54 213/216/54 214/213/54
f 219/217/55 227/218/55 217/219/55
f 227/218/55 216/220/55 217/219/55
f 216/220/55 211/221/55 217/219/55
f 209/222/56 214/213/56 213/216/56
f 213/216/56 208/223/56 209/222/56
f 224/224/57 232/225/57 230/226/57
f 224/224/57 230/226/57 226/227/57
f 222/228/58 212/229/58 215/230/58
f 222/228/58 215/230/58 228/231/58
f 222/228/58 228/231/58 221/232/58
o cube1_sep8
v -0.966420 0.211371 0.947875
v -0.966420 0.708651 1.202682
v 0.966420 0.708651 1.202682
v 0.966420 0.211371 0.947875
v -0.966420 0.247602 -1.806061
v -0.966420 0.744882 -1.906272
v 0.966420 0.744882 -1.906272
v 0.966420 0.247602 -1.806061
v -0.966420 0.553551 1.761988
v 0.966420 0.553094 1.761988
v -0.926323 0.008036 0.970115
v -0.926323 0.401476 1.616253
v -0.656731 0.401476 1.616253
v -0.656731 0.008036 0.970115
v -0.926323 0.008036 -1.492660
v -0.656731 0.008036 -1.492660
v -0.926323 0.621052 1.342467
v -0.656731 0.621052 1.342467
v -0.656731 0.621052 -1.865013
v -0.926323 0.621052 -1.865013
v -0.966420 0.211371 0.947875
v -0.966420 0.708651 1.202682
v 0.966420 0.708651 1.202682
v 0.966420 0.211371 0.947875
v -0.966420 0.247602 -1.806061
v -0.966420 0.247602 -1.806061
v -0.966420 0.744882 -1.906272
v -0.966420 0.744882 -1.906272
v 0.966420 0.744882 -1.906272
v 0.966420 0.744882 -1.906272
v 0.966420 0.247602 -1.806061
v 0.966420 0.247602 -1.806061
v -0.966420 0.553551 1.761988
v -0.966420 0.553551 1.761988
v 0.966420 0.553094 1.761988
v 0.966420 0.553094 1.761988
v -0.926323 0.008036 0.970115
v -0.926323 0.401476 1.616253
v -0.926323 0.401476 1.616253
v -0.656731 0.401476 1.616253
v -0.656731 0.401476 1.616253
v -0.656731 0.008036 0.970115
v -0.926323 0.008036 -1.492660
v -0.926323 0.008036 -1.492660
v -0.656731 0.008036 -1.492660
v -0.656731 0.008036 -1.492660
v -0.926323 0.621052 1.342467
v -0.656731 0.621052 1.342467
v -0.656731 0.621052 -1.865013
v -0.656731 0.621052 -1.865013
v -0.926323 0.621052 -1.865013
v -0.926323 0.621052 -1.865013
vt 0.663583 0.104624
vt 0.434593 0.104624
vt 0.434593 0.000021
vt 0.663583 0.000000
vt 0.096451 0.437133
vt 0.422720 0.441425
vt 0.434593 0.500340
vt 0.066263 0.496047
vt 0.000000 0.477618
vt 0.663583 0.430922
vt 0.434593 0.430922
vt 0.228991 0.068778
vt 0.228991 0.437133
vt 0.000000 0.437133
vt 0.000000 0.068778
vt 0.434593 0.491021
vt 0.434593 0.430922
vt 0.663583 0.430922
vt 0.663583 0.491021
vt 0.338141 0.500340
vt 0.434593 0.540879
vt 0.368329 0.559254
vt 0.000000 0.563547
vt 0.011872 0.504632
vt 0.000000 0.000014
vt 0.228991 0.000000
vt 0.324810 0.089625
vt 0.324810 0.000000
vt 0.356749 0.000000
vt 0.356749 0.089625
vt 0.356749 0.381399
vt 0.324810 0.381399
vt 0.260930 0.041579
vt 0.260930 0.421582
vt 0.228991 0.421582
vt 0.228991 0.041579
vt 0.412641 0.682750
vt 0.380204 0.708764
vt 0.336090 0.636138
vt 0.000202 0.708764
vt 0.044316 0.636138
vt 0.260930 0.000000
vt 0.228991 0.000000
vt 0.418362 0.086295
vt 0.418362 0.171270
vt 0.386422 0.171270
vt 0.386422 0.086295
vt 0.336631 0.635244
vt 0.044857 0.635244
vt 0.000743 0.707870
vt 0.380745 0.707870
vt 0.413182 0.681856
vn 0.0000 -0.9221 0.3870
vn -0.0002 -0.9219 0.3875
vn 1.0000 0.0000 0.0000
vn 0.0000 -0.9999 -0.0132
vn 0.0000 0.9999 0.0117
vn 0.0000 -0.1975 -0.9803
vn -1.0000 0.0000 0.0000
vn 0.0000 0.9636 0.2672
vn 0.0002 0.9634 0.2680
vn 0.0000 -0.8541 0.5201
vn 0.0000 -1.0000 0.0000
vn 0.0000 1.0000 0.0000
vn 0.0000 0.7801 0.6256
vn 0.0000 -0.5191 -0.8547
usemtl cube1_auv
s off
f 253/233/59 256/234/59 268/235/59
f 268/235/60 266/236/60 253/233/60
f 236/237/61 240/238/61 261/239/61
f 236/237/61 261/239/61 235/240/61
f 235/240/61 242/241/61 236/237/61
f 253/233/62 257/242/62 264/243/62
f 253/233/62 264/243/62 256/234/62
f 255/244/63 239/245/63 259/246/63
f 259/246/63 234/247/63 255/244/63
f 262/248/64 263/249/64 258/250/64
f 258/250/64 260/251/64 262/248/64
f 233/252/65 265/253/65 254/254/65
f 233/252/65 254/254/65 238/255/65
f 233/252/65 238/255/65 237/256/65
f 255/244/66 234/247/66 241/257/66
f 255/244/67 241/257/67 267/258/67
f 246/259/68 272/260/68 270/261/68
f 270/261/68 269/262/68 246/259/68
f 269/262/69 275/263/69 277/264/69
f 269/262/69 277/264/69 246/259/69
f 250/265/70 281/266/70 283/267/70
f 283/267/70 249/268/70 250/265/70
f 271/269/65 279/270/65 243/271/65
f 279/270/65 252/272/65 243/271/65
f 252/272/65 247/273/65 243/271/65
f 245/274/71 250/265/71 249/268/71
f 249/268/71 244/275/71 245/274/71
f 276/276/72 284/277/72 282/278/72
f 276/276/72 282/278/72 278/279/72
f 274/280/61 248/281/61 251/282/61
f 274/280/61 251/282/61 280/283/61
f 274/280/61 280/283/61 273/284/61
